<svg width="64" height="56" viewBox="0 0 64 56" fill="none" xmlns="http://www.w3.org/2000/svg">
<path d="M32 0L0 14.9333L8.53333 18.7733V26.0267C5.97333 26.88 4.26667 29.44 4.26667 32C4.26667 34.56 5.97333 37.12 8.53333 37.9733V38.4L4.69333 47.36C3.41333 51.2 4.26667 55.4667 10.6667 55.4667C17.0667 55.4667 17.92 51.2 16.64 47.36L12.8 38.4C15.36 37.12 17.0667 34.9867 17.0667 32C17.0667 29.0133 15.36 26.88 12.8 26.0267V20.9067L32 29.8667L64 14.9333L32 0ZM50.7733 27.7333L31.5733 36.2667L21.3333 31.5733V32C21.3333 34.9867 20.0533 37.5467 17.92 39.68L20.48 45.6533V46.08C20.9067 47.7867 21.3333 49.4933 20.9067 51.2C23.8933 52.48 27.3067 53.3333 31.5733 53.3333C45.6533 53.3333 50.7733 44.8 50.7733 40.5333V27.7333Z" fill="#262522"/>
</svg>
