<svg width="623" height="734" viewBox="0 0 623 734" fill="none" xmlns="http://www.w3.org/2000/svg">
<g clip-path="url(#clip0_6_128)">
<path d="M105.784 647.736C104.94 646.312 101.287 647.836 100.616 646.544C99.9466 645.257 103.34 643.295 105.279 638.814C105.629 638.006 107.832 632.914 106.201 631.343C103.109 628.364 88.9613 640.655 84.0102 636.633C82.9236 635.751 82.1645 633.988 78.8759 631.127C77.5676 629.989 76.7765 629.475 76.0109 629.667C74.9245 629.938 74.8385 631.392 73.6736 634.251C71.9265 638.538 70.8933 638.279 69.8754 641.7C69.1198 644.239 69.2924 645.715 68.4032 646.003C67.145 646.41 65.9868 643.716 64.3922 643.957C62.765 644.204 61.7813 647.34 61.4706 649.687C60.8874 654.094 62.5055 657.001 63.4024 660.058C64.377 663.38 64.9554 668.433 62.7047 675.586L40.4275 738.352C45.3456 725.472 59.5859 690.166 65.5697 677.047C67.2971 673.259 69.2044 669.417 73.1206 667.901C76.8911 666.441 82.0693 667.313 88.6709 665.723C89.4419 665.537 91.5814 664.993 91.8507 663.734C92.0734 662.694 90.8149 662.113 91.0083 661.139C91.2676 659.832 93.7424 659.816 96.7836 658.308C98.9281 657.244 100.264 655.98 101.413 654.892C101.759 654.565 106.908 649.631 105.784 647.736Z" fill="#7D9669"/>
<path d="M18.1389 680.778C17.1965 680.782 16.8908 683.014 16.063 682.971C15.238 682.928 15.2545 680.697 13.6147 678.452C13.3189 678.047 11.4554 675.497 10.2135 675.844C7.85965 676.502 9.81001 686.992 6.40733 688.262C5.6606 688.54 4.57667 688.405 2.22364 689.193C1.28754 689.507 0.807075 689.747 0.679995 690.178C0.499695 690.789 1.18845 691.251 2.25544 692.648C3.8556 694.742 3.4304 695.174 4.81553 696.661C5.84379 697.764 6.61817 698.106 6.50276 698.625C6.33949 699.36 4.68342 699.151 4.34169 700.004C3.993 700.873 5.24828 702.261 6.31099 703.091C8.30528 704.648 10.1991 704.693 11.9584 705.135C13.8702 705.615 16.5169 706.789 19.3781 709.958L43.7565 739.001C38.8542 732.871 25.6346 715.695 20.9217 708.973C19.5612 707.032 18.2261 704.988 18.6119 702.628C18.9833 700.356 20.9052 698.066 22.0294 694.367C22.1607 693.935 22.5108 692.728 21.9709 692.233C21.5245 691.824 20.8764 692.274 20.4539 691.898C19.8873 691.393 20.5935 690.174 20.7308 688.246C20.8277 686.887 20.5925 685.866 20.3903 684.989C20.3293 684.724 19.3933 680.774 18.1389 680.778Z" fill="#7D9669"/>
<path d="M36.9385 684.998L36.3707 679.93L36.6301 679.546C37.8305 677.769 38.4423 676.034 38.4496 674.387C38.4508 674.125 38.4386 673.864 38.4264 673.597C38.3774 672.54 38.3163 671.226 39.0015 669.694C39.3857 668.84 40.4649 666.862 42.0874 667.107C42.5242 667.168 42.8546 667.369 43.1054 667.604C43.1422 667.545 43.1801 667.486 43.2205 667.423C43.7258 666.652 44.1259 666.321 44.5114 666.003C44.8075 665.758 45.1134 665.506 45.593 664.909C45.8035 664.647 45.9674 664.417 46.1057 664.224C46.5254 663.639 47.0736 662.942 48.0402 662.954C49.0729 663.003 49.6138 663.857 49.9723 664.422C50.6123 665.431 50.9022 666.157 51.0943 666.639C51.1641 666.816 51.2436 667.014 51.284 667.075C51.6168 667.565 54.3223 667.107 55.3415 666.94C57.6308 666.559 59.6119 666.228 60.428 667.672C61.0129 668.705 60.5785 670.07 59.0979 671.84C58.6366 672.39 58.146 672.809 57.7104 673.137C58.0713 673.352 58.3943 673.683 58.5253 674.201C58.8337 675.43 57.7777 676.661 55.388 677.865C54.7945 678.166 53.9955 678.567 52.8759 678.761C52.3486 678.851 51.8738 678.873 51.4676 678.885C51.459 679.12 51.4039 679.375 51.2608 679.637C50.8411 680.408 49.9675 680.775 48.6508 680.686C47.2021 680.611 46.0091 680.334 44.9568 680.092C44.0379 679.881 43.2462 679.703 42.6246 679.744C41.472 679.837 40.5836 680.76 39.5411 681.957L36.9385 684.998Z" fill="#7D9669"/>
<path d="M39.5722 654.823L34.8137 656.657L34.3763 656.504C32.3533 655.793 30.5198 655.642 28.9248 656.052C28.6712 656.118 28.421 656.196 28.1661 656.275C27.1559 656.591 25.9002 656.983 24.2446 656.709C23.321 656.554 21.1346 656.012 20.9597 654.38C20.9081 653.942 21.0184 653.572 21.1821 653.269C21.1159 653.249 21.0495 653.227 20.9777 653.204C20.1039 652.911 19.6828 652.608 19.2773 652.315C18.9655 652.091 18.6441 651.859 17.9448 651.547C17.6381 651.409 17.374 651.309 17.152 651.224C16.4797 650.967 15.6661 650.614 15.4327 649.675C15.2181 648.664 15.9071 647.924 16.363 647.434C17.1759 646.559 17.8054 646.094 18.223 645.786C18.3757 645.674 18.5473 645.547 18.5963 645.492C18.9853 645.046 17.8564 642.545 17.4369 641.602C16.4869 639.484 15.6649 637.652 16.8545 636.496C17.7051 635.668 19.1362 635.742 21.2232 636.725C21.8728 637.032 22.402 637.4 22.8298 637.739C22.9465 637.335 23.1841 636.939 23.6528 636.68C24.7629 636.07 26.2214 636.78 27.9922 638.786C28.4339 639.284 29.0248 639.955 29.4958 640.989C29.7171 641.476 29.8589 641.929 29.9738 642.319C30.2032 642.268 30.4633 642.257 30.7529 642.329C31.6051 642.539 32.1817 643.291 32.4305 644.587C32.7246 646.008 32.7597 647.232 32.7923 648.311C32.8218 649.253 32.8498 650.064 33.0477 650.655C33.43 651.746 34.5477 652.372 35.9697 653.077L39.5722 654.823Z" fill="#7D9669"/>
<path d="M36.9385 639.892L36.3707 634.823L36.6301 634.439C37.8305 632.662 38.4423 630.927 38.4496 629.28C38.4508 629.019 38.4386 628.757 38.4264 628.49C38.3774 627.433 38.3163 626.119 39.0015 624.587C39.3857 623.733 40.4649 621.755 42.0874 622C42.5242 622.061 42.8546 622.262 43.1054 622.497C43.1422 622.438 43.1801 622.379 43.2205 622.316C43.7258 621.545 44.1259 621.214 44.5114 620.896C44.8075 620.652 45.1134 620.4 45.593 619.802C45.8035 619.541 45.9674 619.31 46.1057 619.117C46.5254 618.532 47.0736 617.835 48.0402 617.847C49.0729 617.896 49.6138 618.75 49.9723 619.315C50.6123 620.324 50.9022 621.05 51.0943 621.533C51.1641 621.709 51.2436 621.907 51.284 621.968C51.6168 622.458 54.3223 622 55.3415 621.834C57.6308 621.452 59.6119 621.121 60.428 622.565C61.0129 623.598 60.5785 624.964 59.0979 626.733C58.6366 627.283 58.146 627.702 57.7104 628.03C58.0713 628.245 58.3943 628.576 58.5253 629.094C58.8337 630.323 57.7777 631.554 55.388 632.758C54.7945 633.059 53.9955 633.46 52.8759 633.654C52.3486 633.744 51.8738 633.766 51.4676 633.778C51.459 634.013 51.4039 634.268 51.2608 634.53C50.8411 635.301 49.9675 635.668 48.6508 635.58C47.2021 635.504 46.0091 635.227 44.9568 634.985C44.0379 634.774 43.2462 634.596 42.6246 634.637C41.472 634.73 40.5836 635.653 39.5411 636.85L36.9385 639.892Z" fill="#7D9669"/>
<path d="M42.1241 738.269L41.062 737.604L39.8237 737.746C39.8041 737.631 39.7369 737.366 39.6353 736.953C39.081 734.687 37.3912 727.79 35.9816 716.93C34.9978 709.348 34.4411 701.554 34.3261 693.759C34.2111 685.953 34.5806 680.043 34.8767 675.293C35.1006 671.71 35.3723 668.299 35.639 664.975C36.3487 656.097 37.018 647.71 36.52 638.426C36.4099 636.353 36.1786 632.038 33.658 627.447C32.1958 624.785 30.1817 622.421 27.6709 620.424L29.2322 618.461C32.0037 620.669 34.2318 623.287 35.8556 626.243C38.6503 631.334 38.9024 636.035 39.0235 638.294C39.5301 647.742 38.8534 656.21 38.1364 665.174C37.8721 668.485 37.6004 671.881 37.3777 675.449C37.0841 680.155 36.7182 686.014 36.832 693.72C36.9446 701.422 37.4952 709.121 38.4655 716.607C39.858 727.33 41.5233 734.124 42.0703 736.356C42.3615 737.547 42.4227 737.797 42.1241 738.269Z" fill="#7D9669"/>
<path d="M23.075 624.406C22.9723 624.406 22.8683 624.403 22.763 624.396C20.6291 624.281 18.653 623.003 16.8885 620.6C16.0614 619.47 15.638 618.18 14.7937 615.608C14.6628 615.211 14.0265 613.2 13.6398 610.432C13.3865 608.624 13.4184 607.867 13.7769 607.199C14.1746 606.455 14.8182 605.937 15.5425 605.587C15.5107 605.347 15.5364 605.1 15.6404 604.847C16.0675 603.803 17.203 603.94 17.8172 604.006C18.128 604.045 18.5159 604.096 18.9344 604.074C19.5927 604.042 19.9463 603.847 20.4822 603.553C20.9949 603.271 21.6324 602.922 22.5783 602.728C24.4431 602.339 26.0056 602.868 26.5207 603.041C29.231 603.944 30.5672 606.052 32.1138 608.491C32.4222 608.981 33.4806 610.762 34.1792 613.205C34.6834 614.967 34.6124 615.75 34.4607 616.332C34.1523 617.529 33.4243 618.214 31.5754 619.726C29.6446 621.31 28.6755 622.103 27.8434 622.585C25.9065 623.703 24.6902 624.406 23.075 624.406Z" fill="#7D9669"/>
<path d="M414.967 471.596C414.967 471.596 383.628 475.365 388.914 450.586C394.2 425.808 424.173 380.041 424.173 380.041L441.181 389.579L421.654 435.737L430.06 442.369L414.967 471.596Z" fill="#A0616A"/>
<path d="M517.666 441.43L513.25 477.75L402.592 477.208L424.816 438.583L517.666 441.43Z" fill="#6C63FF"/>
<path d="M451.905 381.971C458.677 372.513 459.22 361.304 453.119 356.935C447.017 352.566 436.581 356.692 429.809 366.149C423.037 375.607 422.493 386.816 428.595 391.185C434.697 395.554 445.133 391.428 451.905 381.971Z" fill="#A0616A"/>
<path d="M507.026 579.901V737.526H513.82V579.901H507.026Z" fill="#3F3D56"/>
<path d="M474.414 579.901V737.526H481.208V579.901H474.414Z" fill="#3F3D56"/>
<path d="M291.651 480.707V737.526H298.445V480.707H291.651Z" fill="#686868"/>
<path d="M401.037 579.901V737.526H407.831V579.901H401.037Z" fill="#3F3D56"/>
<path d="M375.037 579.901V737.526H381.831V579.901H375.037Z" fill="#3F3D56"/>
<path d="M500.911 576.504H369.709L344.541 612.204L475.093 619.987L500.911 576.504Z" fill="#3F3D56"/>
<path d="M260.667 454.362L261.263 428.472L182.077 434.563L181.672 452.106L260.667 454.362Z" fill="#A0616A"/>
<path d="M207.074 431.47L203.287 440.581L197.848 440.755C197.848 440.755 204.216 442.705 205.986 454.277L200.76 455.844C200.76 455.844 195.741 460.526 186.359 460.072L161.203 457.968L161.107 449.198L178.493 447.189C178.493 447.189 182.367 444.641 163.189 434.162C163.189 434.162 156.836 430.278 162.55 411.094C163.335 408.457 165.707 406.564 168.458 406.504C169.976 406.471 171.398 407.017 171.966 408.902C173.411 413.701 171.949 418.486 175.921 421.481C179.892 424.477 207.074 431.47 207.074 431.47Z" fill="#2F2E41"/>
<path d="M491.092 553.34C491.092 553.34 463.77 599.81 401.946 591.435C387.234 589.442 374.29 580.695 366.916 567.809C352.663 542.903 331.02 499.294 338.036 474.601L233.474 454.644L225.236 429.25L338.399 414.55C348.408 413.25 358.213 418.118 363.229 426.877L418.353 523.145L434.787 524.94L491.092 553.34Z" fill="#2F2E41"/>
<path d="M262.731 464.96L261.242 439.106L182.803 451.548L183.811 469.067L262.731 464.96Z" fill="#A0616A"/>
<path d="M207.471 446.454L204.429 455.84L199.021 456.451C199.021 456.451 205.526 457.883 208.22 469.275L203.137 471.257C203.137 471.257 198.511 476.328 189.123 476.63L163.88 476.557L163.078 467.823L180.246 464.422C180.246 464.422 183.903 461.57 163.944 452.669C163.944 452.669 157.3 449.307 161.451 429.726C162.022 427.035 164.234 424.957 166.971 424.676C168.481 424.521 169.943 424.95 170.66 426.784C172.487 431.451 171.414 436.338 175.614 439.004C179.814 441.671 207.471 446.454 207.471 446.454Z" fill="#2F2E41"/>
<path d="M500.372 545.08C500.372 545.08 476.877 593.596 414.581 590.223C399.756 589.42 386.15 581.743 377.763 569.492C361.552 545.813 336.471 504.087 341.478 478.909L235.65 467.429L225.395 442.781L337.008 419.024C346.881 416.923 357.046 420.986 362.75 429.313L425.44 520.835L441.965 521.301L500.372 545.08Z" fill="#2F2E41"/>
<path d="M428.754 340.206L423.318 344.283L451.854 383.689L457.289 382.33L428.754 340.206Z" fill="#3F3D56"/>
<path d="M502.949 427.712L534.202 426.353L547.79 487.501C547.79 487.501 519.255 594.848 485.284 590.772C485.284 590.772 464.222 575.145 464.222 569.71C464.222 564.275 435.687 550.686 435.687 550.686L428.893 527.586L449.275 496.333C449.275 496.333 457.428 471.874 484.605 458.286L502.949 427.712Z" fill="#6C63FF"/>
<path d="M324.263 475.271H46.3822V482.066H182.265V737.526H189.059V482.066H324.263V475.271Z" fill="#686868"/>
<path d="M519.255 422.277C539.518 422.277 555.943 405.851 555.943 385.589C555.943 365.326 539.518 348.9 519.255 348.9C498.993 348.9 482.567 365.326 482.567 385.589C482.567 405.851 498.993 422.277 519.255 422.277Z" fill="#A0616A"/>
<path d="M391.332 432.468L365.707 442.659L415.984 509.242L433.649 495.654L391.332 432.468Z" fill="#E6E6E6"/>
<path d="M491.399 560.198C491.399 560.198 481.887 590.296 461.505 575.247C441.122 560.198 411.822 513.998 411.822 513.998L427.534 502.448L461.505 539.297L471.017 534.38L491.399 560.198Z" fill="#A0616A"/>
<path d="M506.346 454.21L537.599 473.233L491.399 573.787L461.505 533.022L506.346 454.21Z" fill="#6C63FF"/>
<path d="M423.797 514.573C430.296 510.821 430.85 499.613 425.034 489.539C419.218 479.465 409.235 474.341 402.735 478.093C396.236 481.845 395.682 493.054 401.498 503.127C407.315 513.201 417.298 518.326 423.797 514.573Z" fill="#A0616A"/>
<path d="M523.267 496.67C532.683 465.802 542.788 456.033 553.412 462.149C561.498 466.804 563.932 477.401 559.193 485.438C547.113 505.926 522.223 552.866 527.408 583.978C527.408 583.978 535.561 627.46 470.337 627.46C405.113 627.46 342.607 612.513 342.607 612.513L376.578 607.078L453.831 612.596C471.482 613.857 486.358 598.754 484 581.217C483.922 580.638 483.83 580.052 483.722 579.461C479.849 558.16 523.267 496.67 523.267 496.67Z" fill="#3F3D56"/>
<path d="M505.504 370.38C502.507 378.771 509.093 387.485 517.984 386.893L518.196 386.878C524.173 394.35 524.338 404.918 518.597 412.572C518.125 422.437 519.671 432.295 523.139 441.543L532.882 467.526L547.882 460.526L555.001 479.526L596.882 457.95L571.5 400.839L563.753 369.855C558.242 347.811 535.756 334.542 513.795 340.375L496.947 344.851C483.636 348.386 475.974 362.323 480.121 375.456L505.504 370.38Z" fill="#2F2E41"/>
<path d="M526.061 317.5H293.079C289.361 317.496 285.797 316.017 283.168 313.388C280.539 310.759 279.06 307.195 279.056 303.477V201.354C279.06 197.636 280.539 194.071 283.168 191.442C285.797 188.813 289.361 187.334 293.079 187.33H526.061C529.779 187.334 533.343 188.813 535.972 191.442C538.601 194.071 540.08 197.636 540.084 201.354V303.477C540.08 307.194 538.601 310.759 535.972 313.388C533.343 316.017 529.779 317.496 526.061 317.5Z" fill="#E6E6E6"/>
<path d="M32 67C41.3888 67 49 59.3888 49 50C49 40.6112 41.3888 33 32 33C22.6112 33 15 40.6112 15 50C15 59.3888 22.6112 67 32 67Z" fill="#6C63FF"/>
<path d="M37 62C33.4399 62 29.9598 60.9443 26.9997 58.9665C24.0396 56.9886 21.7325 54.1774 20.3701 50.8883C19.0077 47.5992 18.6513 43.98 19.3458 40.4884C20.0403 36.9967 21.7547 33.7894 24.272 31.2721C26.7894 28.7547 29.9967 27.0404 33.4883 26.3459C36.98 25.6513 40.5992 26.0078 43.8882 27.3702C47.1773 28.7326 49.9885 31.0397 51.9664 33.9997C53.9443 36.9598 55 40.4399 55 44C54.9946 48.7722 53.0964 53.3475 49.7219 56.722C46.3474 60.0965 41.7722 61.9946 37 62ZM37 28C33.8355 28 30.742 28.9384 28.1108 30.6965C25.4796 32.4546 23.4289 34.9535 22.2179 37.8771C21.0069 40.8007 20.69 44.0177 21.3074 47.1214C21.9248 50.2251 23.4486 53.0761 25.6862 55.3137C27.9239 57.5513 30.7748 59.0752 33.8785 59.6926C36.9822 60.3099 40.1993 59.9931 43.1229 58.7821C46.0465 57.5711 48.5454 55.5203 50.3035 52.8891C52.0616 50.2579 53 47.1645 53 44C52.9951 39.758 51.3079 35.6912 48.3083 32.6916C45.3088 29.6921 41.2419 28.0048 37 28Z" fill="#3F3D56"/>
<path d="M239 281C248.389 281 256 273.389 256 264C256 254.611 248.389 247 239 247C229.611 247 222 254.611 222 264C222 273.389 229.611 281 239 281Z" fill="#E6E6E6"/>
<path d="M244 276C240.44 276 236.96 274.944 234 272.966C231.04 270.989 228.732 268.177 227.37 264.888C226.008 261.599 225.651 257.98 226.346 254.488C227.04 250.997 228.755 247.789 231.272 245.272C233.789 242.755 236.997 241.04 240.488 240.346C243.98 239.651 247.599 240.008 250.888 241.37C254.177 242.733 256.989 245.04 258.966 248C260.944 250.96 262 254.44 262 258C261.995 262.772 260.096 267.348 256.722 270.722C253.347 274.096 248.772 275.995 244 276ZM244 242C240.835 242 237.742 242.938 235.111 244.697C232.48 246.455 230.429 248.953 229.218 251.877C228.007 254.801 227.69 258.018 228.307 261.121C228.925 264.225 230.449 267.076 232.686 269.314C234.924 271.551 237.775 273.075 240.878 273.693C243.982 274.31 247.199 273.993 250.123 272.782C253.047 271.571 255.545 269.52 257.303 266.889C259.062 264.258 260 261.165 260 258C259.995 253.758 258.308 249.691 255.308 246.692C252.309 243.692 248.242 242.005 244 242Z" fill="#3F3D56"/>
<path d="M371 152C380.389 152 388 144.389 388 135C388 125.611 380.389 118 371 118C361.611 118 354 125.611 354 135C354 144.389 361.611 152 371 152Z" fill="#6C63FF"/>
<path d="M376 147C372.44 147 368.96 145.944 366 143.966C363.04 141.989 360.733 139.177 359.37 135.888C358.008 132.599 357.651 128.98 358.346 125.488C359.04 121.997 360.755 118.789 363.272 116.272C365.789 113.755 368.997 112.04 372.488 111.346C375.98 110.651 379.599 111.008 382.888 112.37C386.177 113.733 388.989 116.04 390.966 119C392.944 121.96 394 125.44 394 129C393.995 133.772 392.096 138.347 388.722 141.722C385.348 145.096 380.772 146.995 376 147ZM376 113C372.835 113 369.742 113.938 367.111 115.696C364.48 117.455 362.429 119.953 361.218 122.877C360.007 125.801 359.69 129.018 360.307 132.121C360.925 135.225 362.449 138.076 364.686 140.314C366.924 142.551 369.775 144.075 372.879 144.693C375.982 145.31 379.199 144.993 382.123 143.782C385.047 142.571 387.545 140.52 389.303 137.889C391.062 135.258 392 132.165 392 129C391.995 124.758 390.308 120.691 387.308 117.692C384.309 114.692 380.242 113.005 376 113Z" fill="#3F3D56"/>
<path d="M300.224 219.145H67.2432C63.5252 219.141 59.9607 217.662 57.3316 215.033C54.7026 212.404 53.2237 208.84 53.2195 205.122V102.999C53.2236 99.281 54.7025 95.7164 57.3315 93.0873C59.9605 90.4582 63.5251 88.9793 67.2432 88.9751H300.224C303.942 88.9793 307.507 90.4582 310.136 93.0873C312.765 95.7164 314.244 99.281 314.248 102.999V205.122C314.244 208.84 312.765 212.404 310.136 215.033C307.507 217.662 303.942 219.141 300.224 219.145Z" fill="#6C63FF"/>
<path d="M315.421 208.67H82.4395C78.589 208.666 74.8974 207.134 72.1746 204.411C69.4519 201.689 67.9203 197.997 67.916 194.146V92.0234C67.9203 88.1729 69.4519 84.4813 72.1746 81.7586C74.8974 79.0359 78.589 77.5043 82.4395 77.5H315.421C319.271 77.5043 322.963 79.0358 325.686 81.7586C328.408 84.4813 329.94 88.1729 329.944 92.0234V194.146C329.94 197.997 328.408 201.689 325.686 204.411C322.963 207.134 319.271 208.666 315.421 208.67ZM82.4395 79.5C79.1192 79.5038 75.936 80.8244 73.5882 83.1722C71.2404 85.52 69.9198 88.7032 69.916 92.0234V194.146C69.9198 197.467 71.2404 200.65 73.5882 202.998C75.936 205.346 79.1192 206.666 82.4395 206.67H315.421C318.741 206.666 321.924 205.346 324.272 202.998C326.62 200.65 327.94 197.467 327.944 194.146V92.0234C327.94 88.7031 326.62 85.52 324.272 83.1722C321.924 80.8244 318.741 79.5038 315.421 79.5H82.4395Z" fill="#3F3D56"/>
<path d="M541.257 307.025H308.276C304.425 307.02 300.734 305.489 298.011 302.766C295.288 300.043 293.757 296.352 293.752 292.501V190.378C293.757 186.528 295.288 182.836 298.011 180.114C300.734 177.391 304.425 175.859 308.276 175.855H541.257C545.107 175.859 548.799 177.391 551.522 180.114C554.245 182.836 555.776 186.528 555.78 190.378V292.501C555.776 296.352 554.245 300.043 551.522 302.766C548.799 305.489 545.107 307.02 541.257 307.025ZM308.276 177.855C304.956 177.859 301.772 179.179 299.424 181.527C297.077 183.875 295.756 187.058 295.752 190.378V292.501C295.756 295.821 297.076 299.005 299.424 301.353C301.772 303.7 304.955 305.021 308.276 305.025H541.257C544.577 305.021 547.76 303.7 550.108 301.353C552.456 299.005 553.777 295.821 553.78 292.501V190.378C553.777 187.058 552.456 183.875 550.108 181.527C547.76 179.179 544.577 177.859 541.257 177.855H308.276Z" fill="#3F3D56"/>
</g>
<defs>
<clipPath id="clip0_6_128">
<rect width="623" height="734" fill="white"/>
</clipPath>
</defs>
</svg>
